HIERARCHY
ROOT hips
{
	OFFSET -0.003675 0.299928 -0.021708
	CHANNELS 6 Xposition Yposition Zposition Xrotation Yrotation Zrotation
	JOINT LowerBack
	{
		OFFSET 0.000919 0.177588 0.009275
		CHANNELS 3 Xrotation Yrotation Zrotation
		JOINT spine
		{
			OFFSET 0.000919 0.177588 0.009275
			CHANNELS 3 Xrotation Yrotation Zrotation
			JOINT chest
			{
				OFFSET 0.000456 0.100015 0.004638
				CHANNELS 3 Xrotation Yrotation Zrotation
				JOINT neck
				{
					OFFSET 0.000456 0.100015 0.004638
					CHANNELS 3 Xrotation Yrotation Zrotation
					JOINT head
					{
						OFFSET 0.000924 0.155147 0.009274
						CHANNELS 6 Xposition Yposition Zposition Xrotation Yrotation Zrotation
						End Site
						{
							OFFSET 0.000000 0.153400 0.000000
						}
					}
				}
				JOINT shoulder.L
				{
					OFFSET 0.019937 0.078966 0.057518
					CHANNELS 6 Xposition Yposition Zposition Yrotation Xrotation Zrotation
					JOINT upper_arm.L
					{
						OFFSET 0.177024 -0.020465 -0.095062
						CHANNELS 6 Xposition Yposition Zposition Xrotation Yrotation Zrotation
						JOINT forearm.L
						{
							OFFSET 0.247100 -0.135500 -0.061800
							CHANNELS 3 Xrotation Yrotation Zrotation
							JOINT hand.L
							{
								OFFSET 0.217000 -0.143000 0.039300
								CHANNELS 3 Xrotation Yrotation Zrotation
								JOINT palm.01.L
								{
									OFFSET 0.021770 -0.038291 0.012954
									CHANNELS 6 Xposition Yposition Zposition Yrotation Xrotation Zrotation
									JOINT f_index.01.L
									{
										OFFSET 0.053215 -0.044137 0.008236
										CHANNELS 3 Xrotation Yrotation Zrotation
										JOINT f_index.02.L
										{
											OFFSET 0.036108 -0.024723 -0.010656
											CHANNELS 3 Xrotation Yrotation Zrotation
											JOINT f_index.03.L
											{
												OFFSET 0.021342 -0.014948 -0.010846
												CHANNELS 3 Xrotation Yrotation Zrotation
												End Site
												{
													OFFSET 0.015600 -0.009860 -0.013421
												}
											}
										}
									}
									JOINT thumb.01.L
									{
										OFFSET -0.009090 -0.002348 -0.024223
										CHANNELS 6 Xposition Yposition Zposition Xrotation Yrotation Zrotation
										JOINT thumb.02.L
										{
											OFFSET 0.019713 -0.035076 -0.011120
											CHANNELS 3 Xrotation Yrotation Zrotation
											JOINT thumb.03.L
											{
												OFFSET 0.024877 -0.021748 -0.005176
												CHANNELS 3 Xrotation Yrotation Zrotation
												End Site
												{
													OFFSET 0.016125 -0.013029 -0.001569
												}
											}
										}
									}
								}
								JOINT palm.02.L
								{
									OFFSET 0.032823 -0.025104 0.012281
									CHANNELS 6 Xposition Yposition Zposition Yrotation Xrotation Zrotation
									JOINT f_middle.01.L
									{
										OFFSET 0.055723 -0.038469 0.008037
										CHANNELS 3 Xrotation Yrotation Zrotation
										JOINT f_middle.02.L
										{
											OFFSET 0.038167 -0.027473 -0.015582
											CHANNELS 3 Xrotation Yrotation Zrotation
											JOINT f_middle.03.L
											{
												OFFSET 0.021707 -0.016587 -0.017037
												CHANNELS 3 Xrotation Yrotation Zrotation
												End Site
												{
													OFFSET 0.014112 -0.010584 -0.014294
												}
											}
										}
									}
								}
								JOINT palm.03.L
								{
									OFFSET 0.039230 -0.011402 0.008390
									CHANNELS 6 Xposition Yposition Zposition Yrotation Xrotation Zrotation
									JOINT f_ring.01.L
									{
										OFFSET 0.061796 -0.031470 0.007910
										CHANNELS 3 Xrotation Yrotation Zrotation
										JOINT f_ring.02.L
										{
											OFFSET 0.033092 -0.023401 -0.019127
											CHANNELS 3 Xrotation Yrotation Zrotation
											JOINT f_ring.03.L
											{
												OFFSET 0.021392 -0.015362 -0.017824
												CHANNELS 3 Xrotation Yrotation Zrotation
												End Site
												{
													OFFSET 0.008670 -0.007297 -0.014686
												}
											}
										}
									}
								}
								JOINT palm.04.L
								{
									OFFSET 0.043417 0.002450 0.002889
									CHANNELS 6 Xposition Yposition Zposition Yrotation Xrotation Zrotation
									JOINT f_pinky.01.L
									{
										OFFSET 0.069986 -0.026156 0.003627
										CHANNELS 3 Xrotation Yrotation Zrotation
										JOINT f_pinky.02.L
										{
											OFFSET 0.018520 -0.012813 -0.016429
											CHANNELS 3 Xrotation Yrotation Zrotation
											JOINT f_pinky.03.L
											{
												OFFSET 0.013822 -0.009796 -0.014947
												CHANNELS 3 Xrotation Yrotation Zrotation
												End Site
												{
													OFFSET 0.007238 -0.006103 -0.011657
												}
											}
										}
									}
								}
							}
						}
					}
				}
				JOINT shoulder.R
				{
					OFFSET -0.016662 0.078957 0.057696
					CHANNELS 6 Xposition Yposition Zposition Yrotation Xrotation Zrotation
					JOINT upper_arm.R
					{
						OFFSET -0.176972 -0.020537 -0.095144
						CHANNELS 6 Xposition Yposition Zposition Xrotation Yrotation Zrotation
						JOINT forearm.R
						{
							OFFSET -0.247100 -0.135500 -0.061800
							CHANNELS 3 Xrotation Yrotation Zrotation
							JOINT hand.R
							{
								OFFSET -0.217000 -0.143000 0.039300
								CHANNELS 3 Xrotation Yrotation Zrotation
								JOINT palm.01.R
								{
									OFFSET -0.021773 -0.038278 0.012988
									CHANNELS 6 Xposition Yposition Zposition Yrotation Xrotation Zrotation
									JOINT f_index.01.R
									{
										OFFSET -0.053212 -0.044139 0.008249
										CHANNELS 3 Xrotation Yrotation Zrotation
										JOINT f_index.02.R
										{
											OFFSET -0.036049 -0.024835 -0.010634
											CHANNELS 3 Xrotation Yrotation Zrotation
											JOINT f_index.03.R
											{
												OFFSET -0.021371 -0.014881 -0.010866
												CHANNELS 3 Xrotation Yrotation Zrotation
												End Site
												{
													OFFSET -0.015584 -0.009883 -0.013422
												}
											}
										}
									}
									JOINT thumb.01.R
									{
										OFFSET 0.009113 -0.002381 -0.024211
										CHANNELS 6 Xposition Yposition Zposition Xrotation Yrotation Zrotation
										JOINT thumb.02.R
										{
											OFFSET -0.019694 -0.035097 -0.011088
											CHANNELS 3 Xrotation Yrotation Zrotation
											JOINT thumb.03.R
											{
												OFFSET -0.024867 -0.021762 -0.005168
												CHANNELS 3 Xrotation Yrotation Zrotation
												End Site
												{
													OFFSET -0.016120 -0.013036 -0.001565
												}
											}
										}
									}
								}
								JOINT palm.02.R
								{
									OFFSET -0.032828 -0.025095 0.012286
									CHANNELS 6 Xposition Yposition Zposition Yrotation Xrotation Zrotation
									JOINT f_middle.01.R
									{
										OFFSET -0.055721 -0.038472 0.008040
										CHANNELS 3 Xrotation Yrotation Zrotation
										JOINT f_middle.02.R
										{
											OFFSET -0.038101 -0.027593 -0.015557
											CHANNELS 3 Xrotation Yrotation Zrotation
											JOINT f_middle.03.R
											{
												OFFSET -0.021730 -0.016530 -0.017054
												CHANNELS 3 Xrotation Yrotation Zrotation
												End Site
												{
													OFFSET -0.014096 -0.010608 -0.014293
												}
											}
										}
									}
								}
								JOINT palm.03.R
								{
									OFFSET -0.039192 -0.011488 0.008390
									CHANNELS 6 Xposition Yposition Zposition Yrotation Xrotation Zrotation
									JOINT f_ring.01.R
									{
										OFFSET -0.061839 -0.031387 0.007876
										CHANNELS 3 Xrotation Yrotation Zrotation
										JOINT f_ring.02.R
										{
											OFFSET -0.033068 -0.023437 -0.019125
											CHANNELS 3 Xrotation Yrotation Zrotation
											JOINT f_ring.03.R
											{
												OFFSET -0.021371 -0.015393 -0.017822
												CHANNELS 3 Xrotation Yrotation Zrotation
												End Site
												{
													OFFSET -0.008654 -0.007321 -0.014684
												}
											}
										}
									}
								}
								JOINT palm.04.R
								{
									OFFSET -0.043421 0.002443 0.002845
									CHANNELS 6 Xposition Yposition Zposition Yrotation Xrotation Zrotation
									JOINT f_pinky.01.R
									{
										OFFSET -0.069983 -0.026169 0.003599
										CHANNELS 3 Xrotation Yrotation Zrotation
										JOINT f_pinky.02.R
										{
											OFFSET -0.018501 -0.012842 -0.016428
											CHANNELS 3 Xrotation Yrotation Zrotation
											JOINT f_pinky.03.R
											{
												OFFSET -0.013806 -0.009821 -0.014946
												CHANNELS 3 Xrotation Yrotation Zrotation
												End Site
												{
													OFFSET -0.007226 -0.006121 -0.011655
												}
											}
										}
									}
								}
							}
						}
					}
				}
			}
		}
	}
	JOINT pelvis.L
	{
		OFFSET 0.000000 0.000000 0.000000
		CHANNELS 6 Xposition Yposition Zposition Xrotation Yrotation Zrotation
		JOINT thigh.L
		{
			OFFSET 0.101675 0.001054 -0.000000
			CHANNELS 3 Xrotation Yrotation Zrotation
			JOINT shin.L
			{
				OFFSET 0.000000 -0.534800 0.041000
				CHANNELS 3 Xrotation Yrotation Zrotation
				JOINT foot.L
				{
					OFFSET 0.000000 -0.452000 -0.044800
					CHANNELS 3 Xrotation Yrotation Zrotation
					JOINT toe.L
					{
						OFFSET -0.000000 -0.068500 0.109600
						CHANNELS 3 Xrotation Yrotation Zrotation
						End Site
						{
							OFFSET -0.000000 0.000000 0.067200
						}
					}
				}
				JOINT heel.L
				{
					OFFSET 0.000000 -0.452000 -0.044800
					CHANNELS 3 Xrotation Yrotation Zrotation
					JOINT heel.02.L
					{
						OFFSET -0.038000 -0.085200 0.016200
						CHANNELS 6 Xposition Yposition Zposition Xrotation Yrotation Zrotation
						End Site
						{
							OFFSET 0.080000 -0.000000 0.000000
						}
					}
				}
			}
		}
	}
	JOINT pelvis.R
	{
		OFFSET 0.000000 0.000000 0.000000
		CHANNELS 6 Xposition Yposition Zposition Xrotation Yrotation Zrotation
		JOINT thigh.R
		{
			OFFSET -0.094325 0.001054 0.000000
			CHANNELS 3 Xrotation Yrotation Zrotation
			JOINT shin.R
			{
				OFFSET 0.000000 -0.534800 0.041000
				CHANNELS 3 Xrotation Yrotation Zrotation
				JOINT foot.R
				{
					OFFSET 0.000000 -0.452000 -0.044800
					CHANNELS 3 Xrotation Yrotation Zrotation
					JOINT toe.R
					{
						OFFSET -0.000000 -0.068500 0.109600
						CHANNELS 3 Xrotation Yrotation Zrotation
						End Site
						{
							OFFSET -0.000000 0.000000 0.067200
						}
					}
				}
				JOINT heel.R
				{
					OFFSET 0.000000 -0.452000 -0.044800
					CHANNELS 3 Xrotation Yrotation Zrotation
					JOINT heel.02.R
					{
						OFFSET 0.038000 -0.085200 0.016200
						CHANNELS 6 Xposition Yposition Zposition Xrotation Yrotation Zrotation
						End Site
						{
							OFFSET -0.080000 0.000000 -0.000000
						}
					}
				}
			}
		}
	}
}
MOTION
Frames: 4
Frame Time: 0.041667
-0.005534 0.273798 -0.017318 -0.705690 -6.972701 -6.693737 -0.000000 -0.000000 0.000000 -0.000000 -0.000000 -0.000000 -0.000000 -0.000000 -0.000001 0.000000 0.000000 -0.000000 0.000924 0.155147 0.009274 0.260622 0.004714 2.522217 0.019937 0.078966 0.057518 -5.151729 9.791580 54.537223 0.177025 -0.020466 -0.095062 23.992718 -25.583276 54.099845 -2.297242 35.480510 37.677676 0.000000 -0.000001 -0.000000 0.021770 -0.038291 0.012954 -0.000001 0.000001 0.000006 0.000001 0.000001 0.000007 -0.000000 -0.000000 0.000007 -0.000002 0.000002 0.000002 -0.009090 -0.002348 -0.024224 0.000002 -0.000002 0.000006 0.000000 -0.000000 0.000001 -0.000000 0.000001 0.000003 0.032823 -0.025104 0.012281 -0.000001 -0.000001 0.000007 0.000001 0.000002 -0.000005 -0.000003 0.000002 0.000004 -0.000005 -0.000002 0.000002 0.039230 -0.011402 0.008390 -0.000001 -0.000003 0.000004 0.000000 0.000003 -0.000002 -0.000004 0.000001 0.000001 0.000004 -0.000001 0.000005 0.043417 0.002450 0.002889 -0.000002 0.000002 -0.000002 -0.000000 -0.000001 0.000001 0.000000 -0.000001 -0.000003 -0.000004 -0.000002 -0.000002 -0.016662 0.078957 0.057696 -4.245055 9.715056 -50.047733 -0.176972 -0.020537 -0.095144 24.171145 26.722584 -54.302996 -4.470517 -36.898109 -40.846259 -0.000003 0.000002 0.000002 -0.021773 -0.038278 0.012988 -0.000000 -0.000001 -0.000002 -0.000003 0.000001 -0.000006 -0.000001 -0.000000 -0.000003 0.000001 0.000002 0.000002 0.009113 -0.002381 -0.024211 -0.000002 -0.000003 -0.000001 -0.000000 -0.000002 0.000002 0.000000 0.000000 -0.000003 -0.032828 -0.025095 0.012286 0.000001 0.000000 0.000001 -0.000001 0.000003 0.000002 0.000002 -0.000003 -0.000002 0.000000 0.000006 -0.000005 -0.039192 -0.011488 0.008390 0.000000 0.000003 0.000005 -0.000001 0.000002 -0.000003 -0.000003 0.000001 -0.000004 0.000001 0.000000 -0.000003 -0.043421 0.002443 0.002845 -0.000001 0.000002 0.000000 0.000001 0.000003 0.000003 0.000001 -0.000000 0.000003 -0.000000 -0.000000 -0.000005 0.000000 -0.000000 -0.000000 -1.363436 -0.243398 2.161524 -3.451700 -0.175603 -1.860323 32.068363 -0.566749 5.729832 0.000000 -0.000001 0.000001 -0.000002 -0.000000 0.000000 0.000002 -0.000000 0.000001 -0.038000 -0.085200 0.016200 -0.000002 -0.000000 0.000000 0.000000 -0.000000 0.000000 -1.341053 -0.242319 3.395804 -5.538104 0.401433 4.572218 40.898650 0.662913 -6.703031 -0.000003 0.000000 0.000000 0.000000 0.000000 -0.000000 0.000007 0.000000 0.000000 0.038000 -0.085200 0.016200 0.000000 0.000001 0.000000 
-0.005656 0.271629 -0.018292 -1.335922 -6.615214 -6.667956 -0.000000 0.000001 -0.000000 -0.000000 -0.000000 0.000000 -0.000000 0.000000 0.000000 0.000000 0.000000 -0.000000 0.000924 0.155148 0.009274 1.968021 0.001356 2.004181 0.019937 0.078966 0.057518 -4.446944 9.723492 55.540411 0.177025 -0.020465 -0.095062 23.951472 -24.106214 54.362596 -1.600727 33.801821 36.830709 -0.000002 0.000000 0.000003 0.021770 -0.038291 0.012954 -0.000001 0.000001 0.000001 -0.000003 0.000000 -0.000002 -0.000005 -0.000001 0.000007 -0.000000 0.000003 -0.000003 -0.009090 -0.002348 -0.024224 -0.000000 -0.000002 0.000001 -0.000001 0.000001 0.000003 -0.000001 0.000001 -0.000002 0.032823 -0.025104 0.012281 -0.000000 0.000002 0.000002 -0.000002 0.000001 -0.000003 -0.000003 -0.000002 -0.000000 -0.000001 0.000002 -0.000003 0.039230 -0.011402 0.008390 -0.000000 0.000000 0.000003 -0.000001 0.000000 -0.000002 0.000001 0.000005 -0.000001 0.000007 -0.000003 0.000004 0.043417 0.002450 0.002889 -0.000003 0.000002 -0.000002 -0.000001 -0.000002 -0.000004 -0.000004 0.000000 0.000001 0.000008 0.000000 -0.000001 -0.016662 0.078957 0.057696 -6.069525 9.721780 -50.415378 -0.176972 -0.020537 -0.095144 24.290501 24.189602 -55.017464 -3.613027 -37.324662 -39.181066 0.000000 0.000001 -0.000000 -0.021773 -0.038278 0.012988 0.000000 -0.000002 -0.000002 -0.000003 0.000001 -0.000001 -0.000001 0.000001 -0.000001 0.000002 -0.000002 0.000006 0.009114 -0.002381 -0.024212 0.000001 -0.000001 -0.000001 -0.000001 -0.000000 0.000000 0.000001 0.000000 -0.000004 -0.032828 -0.025095 0.012286 0.000001 -0.000000 0.000001 0.000001 0.000002 0.000004 0.000001 -0.000003 0.000001 -0.000004 0.000003 -0.000006 -0.039192 -0.011488 0.008390 0.000001 0.000001 -0.000000 -0.000003 0.000001 -0.000002 0.000002 0.000002 -0.000000 -0.000001 0.000003 -0.000001 -0.043421 0.002443 0.002845 0.000000 -0.000001 0.000000 -0.000003 0.000004 -0.000002 0.000000 -0.000007 -0.000001 0.000002 0.000001 -0.000001 0.000000 0.000000 -0.000000 -1.397712 -0.292273 2.775145 -6.221922 -0.174635 -1.698271 35.668761 -0.573457 5.797876 0.000002 -0.000000 -0.000000 0.000004 -0.000001 -0.000000 0.000003 0.000000 -0.000000 -0.038000 -0.085200 0.016200 -0.000001 -0.000000 -0.000000 0.000000 0.000000 0.000000 -1.376048 -0.290995 4.009435 -6.235634 0.419218 4.751221 43.604522 0.677616 -6.852387 0.000000 -0.000000 -0.000000 0.000001 0.000000 0.000000 0.000007 0.000000 -0.000000 0.038000 -0.085200 0.016200 -0.000001 0.000000 -0.000000 
-0.005811 0.273932 -0.016418 -1.261816 -6.246401 -7.823788 -0.000000 -0.000000 0.000000 0.000000 -0.000000 0.000000 -0.000000 -0.000001 0.000000 -0.000000 -0.000000 0.000000 0.000924 0.155148 0.009274 0.827084 0.003704 1.513811 0.019937 0.078966 0.057518 -4.893620 9.977457 55.510914 0.177025 -0.020465 -0.095062 22.790139 -22.634960 53.357499 -1.248031 34.679240 35.798647 -0.000003 -0.000002 0.000005 0.021770 -0.038291 0.012954 0.000000 -0.000001 -0.000000 -0.000001 -0.000003 -0.000004 0.000002 -0.000002 0.000006 -0.000003 0.000002 0.000004 -0.009090 -0.002348 -0.024223 0.000000 -0.000001 -0.000004 0.000002 -0.000001 0.000001 0.000002 -0.000000 -0.000001 0.032823 -0.025104 0.012281 0.000001 -0.000000 -0.000001 0.000002 0.000003 -0.000003 -0.000004 0.000000 0.000001 -0.000003 -0.000006 0.000004 0.039230 -0.011402 0.008390 0.000001 0.000000 0.000003 0.000002 0.000000 -0.000000 -0.000004 0.000002 0.000005 0.000002 -0.000000 0.000004 0.043418 0.002450 0.002889 -0.000001 0.000002 -0.000000 -0.000004 -0.000004 0.000001 0.000003 0.000003 -0.000005 0.000006 0.000001 0.000001 -0.016662 0.078956 0.057696 -6.059216 9.938442 -50.120485 -0.176972 -0.020537 -0.095144 23.578199 23.928017 -54.280108 -4.876370 -37.381099 -41.375691 -0.000000 0.000001 0.000004 -0.021773 -0.038278 0.012988 0.000000 -0.000001 -0.000005 -0.000001 0.000002 0.000001 -0.000001 0.000001 -0.000004 -0.000002 -0.000002 0.000001 0.009114 -0.002381 -0.024212 0.000000 0.000001 -0.000003 -0.000001 -0.000001 -0.000001 0.000001 0.000001 -0.000003 -0.032828 -0.025095 0.012286 0.000000 0.000000 0.000001 -0.000000 0.000000 -0.000001 0.000002 -0.000001 -0.000002 0.000001 -0.000002 -0.000003 -0.039192 -0.011488 0.008390 0.000000 0.000000 -0.000000 -0.000002 0.000002 0.000000 0.000001 0.000002 -0.000002 0.000001 -0.000003 0.000002 -0.043421 0.002443 0.002845 -0.000002 0.000000 -0.000003 -0.000002 0.000000 -0.000004 -0.000001 -0.000003 0.000002 0.000003 0.000002 0.000002 -0.000000 0.000000 -0.000000 -1.350798 -0.298415 2.892291 -1.236945 -0.120004 -1.249086 30.462381 -0.538961 5.448109 -0.000003 0.000000 0.000000 0.000001 -0.000001 0.000000 0.000000 0.000000 -0.000001 -0.038000 -0.085200 0.016200 0.000004 0.000000 -0.000000 0.000000 0.000000 -0.000000 -1.330189 -0.297159 4.126577 -2.790169 0.430119 5.126880 39.259569 0.633256 -6.401839 -0.000003 -0.000000 -0.000000 -0.000000 -0.000000 -0.000000 0.000002 -0.000000 0.000000 0.038000 -0.085200 0.016200 0.000008 -0.000000 0.000000 
-0.005686 0.274188 -0.017354 -1.334648 -5.650788 -8.824375 -0.000000 0.000000 0.000002 -0.000000 0.000000 0.000000 -0.000000 -0.000000 -0.000001 -0.000000 -0.000000 -0.000000 0.000924 0.155147 0.009274 0.396357 0.004725 0.739051 0.019937 0.078966 0.057518 -4.310608 9.881543 55.247228 0.177025 -0.020465 -0.095062 22.947798 -22.043483 53.675028 -0.750156 33.777393 34.998142 -0.000001 0.000003 0.000003 0.021770 -0.038291 0.012954 0.000001 0.000001 0.000001 -0.000004 -0.000000 0.000001 0.000003 -0.000002 0.000010 -0.000002 0.000001 0.000002 -0.009090 -0.002348 -0.024223 -0.000003 -0.000001 -0.000001 0.000001 0.000000 0.000001 -0.000000 0.000000 -0.000006 0.032823 -0.025104 0.012281 0.000000 0.000001 0.000004 0.000003 0.000002 -0.000005 -0.000003 -0.000003 0.000003 -0.000000 0.000000 -0.000005 0.039230 -0.011402 0.008390 0.000001 -0.000000 0.000008 0.000006 0.000001 -0.000004 -0.000001 0.000006 0.000003 -0.000001 -0.000004 0.000003 0.043417 0.002450 0.002889 0.000000 0.000001 -0.000003 0.000001 -0.000003 0.000001 -0.000003 0.000004 -0.000001 -0.000005 -0.000001 -0.000001 -0.016662 0.078956 0.057696 -4.964264 9.819830 -50.466837 -0.176972 -0.020537 -0.095144 23.009635 24.656933 -53.499052 -4.663531 -35.031186 -41.863712 0.000002 0.000001 0.000002 -0.021773 -0.038278 0.012988 0.000000 -0.000002 -0.000003 -0.000000 0.000002 -0.000003 0.000001 -0.000000 -0.000003 0.000000 -0.000002 0.000003 0.009114 -0.002381 -0.024212 0.000001 -0.000001 -0.000001 -0.000001 -0.000001 0.000005 0.000001 0.000000 -0.000006 -0.032828 -0.025095 0.012286 0.000001 -0.000000 0.000001 0.000003 0.000002 0.000004 -0.000002 -0.000001 -0.000001 -0.000002 0.000003 -0.000004 -0.039192 -0.011488 0.008390 0.000000 0.000001 0.000007 0.000001 0.000003 -0.000003 0.000000 0.000001 -0.000003 -0.000005 0.000002 -0.000002 -0.043421 0.002442 0.002844 -0.000001 0.000001 0.000004 -0.000001 0.000003 0.000003 -0.000002 -0.000001 -0.000000 -0.000001 0.000003 0.000001 -0.000000 0.000000 -0.000000 -1.362087 -0.352170 3.586450 -2.921002 -0.078614 -0.621433 33.563191 -0.544714 5.506425 0.000000 -0.000000 -0.000000 0.000002 -0.000000 0.000001 0.000005 0.000001 -0.000000 -0.038000 -0.085200 0.016200 -0.000002 -0.000000 0.000000 0.000000 0.000000 0.000000 -1.342759 -0.350757 4.820748 -3.936674 0.403863 4.706609 42.635858 0.429123 -4.332843 0.000002 0.000000 0.000000 0.000006 0.000000 -0.000000 0.000007 0.000000 0.000000 0.038000 -0.085200 0.016200 0.000001 -0.000000 -0.000000 
